<?xml version="1.0" encoding="utf-8"?>
<!-- Generator: Adobe Illustrator 19.0.0, SVG Export Plug-In . SVG Version: 6.00 Build 0)  -->
<svg version="1.1" id="Layer_1" xmlns="http://www.w3.org/2000/svg" xmlns:xlink="http://www.w3.org/1999/xlink" x="0px" y="0px"
	 viewBox="0 0 1500 1500" style="enable-background:new 0 0 1500 1500;" xml:space="preserve">
<style type="text/css">
	.st1{fill:#A656E1;}
</style>

<path id="XMLID_35_" class="st1" d="M1086.1,646.6c-5.2-26.8-9.6-52.2-13.3-75.3c-17.5-108.2-23.7-189.7-23.7-190.5
	c-0.2-3-1.7-5.8-4-7.7c-2.2-1.8-5.1-2.7-8-2.4c-6.9,0.7-16.2,1.5-27.1,2.4c-13.1,1.1-28.6,2.5-45.6,4.1c-56.7,3.4-138.3,5-213.4-6.4
	c-80.7-12.2-130.4,30.6-142.3,75.6c-5.9,22.2-3,45.5,8.1,65.6c12.1,21.7,33.2,39,61.1,49.8c4.1,1.6,8.8,0.6,11.9-2.7
	c3.1-3.2,3.9-8,2.1-12c-0.1-0.2-8.7-19.9-9.4-42.7c-1-28.4,10.4-48.8,33.8-60.5c26.3-13.1,76.2-23.3,129.5-31
	c-4.2,34.2-16.8,126.9-42.6,233c-7.4-1.7-24.7-7.1-27.9-20.6H765c-3.5,0-6.4,2.8-6.4,6.4v25.9v25.9c0,3.5,2.8,6.4,6.4,6.4h10.4
	c2.4-10.5,13.3-16.1,21.6-18.9c-2.1,8.2-4.3,16.5-6.6,24.8c-24.7,90.2-53.9,166.8-86.7,227.9c-40.4,75.2-86.3,126.4-136.4,152.2
	c-23.4,12.1-46.2,20.9-68,26.4c-28.2,3.7-56.5-10.1-80-39c-35.4-43.6-58.3-122.7-29.4-201.1c17-46.2,50.5-71.8,99.7-76.2
	c38.1-3.4,71.9,7.7,72.2,7.8c4.7,1.6,10.1-0.2,12.8-4.6c1.8-2.8,2-6.3,1-9.5c-8-24.7-24.7-45.5-48.3-60.2
	c-22.4-13.9-49.5-21.4-78.3-21.7c-35.8-0.3-70.4,10.5-100.1,31.2c-33.2,23.2-58.5,58.4-73.1,101.6c-32.5,96.3-9.2,203.1,56.7,259.8
	c21.5,18.5,59,41,114.1,41c35.9,0,79.4-9.6,130.8-36.1c54.1-27.9,103.1-82.1,145.7-161.3c33.6-62.5,63.4-140.7,88.5-232.4
	c1.4-5.2,2.8-10.3,4.1-15.4c2.8-10.4,12.2-17.7,23-17.7H931c11.2,0,21,7.9,23.3,18.9c12.5,59.3,28.5,123.5,48.8,184.6l0,0
	c0.8,18.2-16.9,26.2-31.1,29.6c-9.9,2.4-17,11.2-17,21.5v1.5v5.8v16.2h283.8v-21.9l0,0c0-12.1-9.8-22-22-22
	c-25.3-0.2-65-6.2-76.4-40.7c-21-63.8-37.3-131.1-49.8-192.3 M760,406.5c-21.5,5.2-40.1,11.1-53.5,17.8
	c-31.5,15.8-47.4,43.9-45.9,81.5c0,0.1,0,0.2,0,0.3c0.4,9.2-11,13.7-16.9,6.6C627.5,493,625.1,470,629.9,452
	c8.4-31.4,40.9-61.4,94.3-61.4c7.5,0,15.3,0.6,23.6,1.8c3.8,0.6,7.7,1.1,11.6,1.6C766.3,395,766.8,404.8,760,406.5z M387.2,1098.5
	c-14.7-5.9-28.2-14.1-40.6-24.7c-59.3-51-80-148.2-50.2-236.2c29.4-87,97-118,151-118c0.4,0,0.8,0,1.2,0
	c23.8,0.2,45.9,6.3,63.9,16.7c12.9,7.5,7.6,27.1-7.3,27c-5.5,0-11.1,0.2-16.9,0.7c-57.9,4.9-99.1,36.2-119.1,90.5
	c-31.9,86.6-6.4,174.1,33,222.5c0.1,0.1,0.2,0.3,0.3,0.4C411.3,1088.2,400.1,1103.6,387.2,1098.5z M917.5,646.6h-61.9
	c-15.2,0-26.5-14.1-23.2-29c19-84.8,29.5-157.4,34.1-193c1.1-8.7,8-15.6,16.8-16.7c2.9-0.4,5.9-0.7,8.8-1.1
	c10.7-1.3,20.3,6.4,21.4,17.1c3.6,34.6,10,88.2,20,150.6c2.2,13.9,4.7,28.6,7.5,44C943.5,633.1,932.3,646.6,917.5,646.6z
	 M1076.3,924.4L1076.3,924.4c-18.8,0-35.6-11.7-42-29.3c-23.5-64.8-41.9-135.1-56-200.3l0,0c0,0-19.8-86.3-20.3-105.8l0,0
	c-1-6-2-12-2.9-17.7c-7.6-46.9-13-88.7-16.8-121.2c-3-26.3,16.2-49.8,42.5-52.1l1.2-0.1c25.4-2.2,47.9,16.3,50.7,41.6
	c3.8,34.2,9.7,81.4,18.4,135.1c2.4,14.9,5.1,30.7,8.1,47.2c1.1,6.3,6.3,34.3,11,57.2c0.1,0.2,0.1,0.4,0.2,0.6
	c12.3,59.5,28.2,124.3,48.4,186.3C1128.2,894.8,1106.7,924.4,1076.3,924.4z"/>
</svg>
